<?xml version="1.0" encoding="UTF-8"?>
<svg width="152px" height="32px" viewBox="0 0 152 32" version="1.1" xmlns="http://www.w3.org/2000/svg" xmlns:xlink="http://www.w3.org/1999/xlink">
    <!-- Generator: sketchtool 53 (72520) - https://sketchapp.com -->
    <title>7A617312-16AB-49FE-A8DA-F42E24E3C319</title>
    <desc>Created with sketchtool.</desc>
    <g id="IOS---Android" stroke="none" stroke-width="1" fill="none" fill-rule="evenodd">
        <g id="Desktop-HD" transform="translate(-165.000000, -37.000000)" fill="#FFFFFF">
            <path d="M196.536,54.2746667 C196.502805,54.6799514 196.208194,55.0157208 195.810667,55.1013333 L192.2,55.9173333 C191.880699,55.98577 191.622356,56.2197024 191.522667,56.5306667 C191.344873,57.0798571 191.125574,57.6147325 190.866667,58.1306667 C190.714975,58.4175704 190.729235,58.763872 190.904,59.0373333 L192.877333,62.168 C193.080693,62.5050373 193.046356,62.9342467 192.792,63.2346667 C192.2826,63.8293978 191.728064,64.3839329 191.133333,64.8933333 C190.832913,65.1476898 190.403704,65.1820266 190.066667,64.9786667 L186.925333,62.9733333 C186.651868,62.8048502 186.310462,62.7907091 186.024,62.936 C185.67675,63.1154438 185.320751,63.2774235 184.957333,63.4213333 C184.772627,63.4685057 184.576787,63.4135038 184.443648,63.277064 C184.310509,63.1406242 184.260319,62.9434962 184.312,62.76 C184.603698,62.0293717 184.991081,61.3406917 185.464,60.712 C185.72,60.36 185.890667,60.136 186.045333,59.928 L186.141333,59.8053333 C186.472,59.3733333 186.802667,58.9306667 187.090667,58.5146667 C187.431038,58.0241357 187.737528,57.5109429 188.008,56.9786667 C188.670866,55.6569912 188.990024,54.1895992 188.936,52.712 C188.769149,48.7819121 185.735888,45.5735676 181.821333,45.1866667 C181.314022,45.138663 180.803311,45.138663 180.296,45.1866667 C176.367584,45.5700854 173.325234,48.7946119 173.170667,52.7386667 C173.115506,54.216973 173.436653,55.6850757 174.104,57.0053333 C174.372649,57.5375141 174.677359,58.0507101 175.016,58.5413333 C175.304,58.9573333 175.64,59.4 175.970667,59.832 L176.061333,59.9546667 C176.221333,60.1626667 176.386667,60.3866667 176.642667,60.7386667 C177.113275,61.3697906 177.502141,62.0579216 177.8,62.7866667 C177.851189,62.9761694 177.794144,63.1784735 177.651497,63.3133195 C177.50885,63.4481655 177.303661,63.4937544 177.117333,63.432 C176.753456,63.2891745 176.397401,63.1271697 176.050667,62.9466667 C175.762553,62.8004245 175.419115,62.814566 175.144,62.984 L172.013333,64.9626667 C171.676296,65.1660266 171.247087,65.1316898 170.946667,64.8773333 C170.354506,64.3651628 169.800171,63.8108273 169.288,63.2186667 C169.033644,62.9182467 168.999307,62.4890373 169.202667,62.152 L171.181333,59.064 C171.350767,58.7888851 171.364909,58.4454467 171.218667,58.1573333 C170.95805,57.6415044 170.73697,57.1066341 170.557333,56.5573333 C170.462437,56.2473354 170.207484,56.0127795 169.890667,55.944 L166.285333,55.128 C165.89317,55.0378456 165.605542,54.7026404 165.576,54.3013333 C165.517333,53.5130901 165.517333,52.7215766 165.576,51.9333333 C165.594098,51.521915 165.884151,51.1729791 166.285333,51.08 L169.869333,50.264 C170.186151,50.1952205 170.441103,49.9606646 170.536,49.6506667 C170.71465,49.1010019 170.935761,48.5660569 171.197333,48.0506667 C171.343576,47.7625533 171.329434,47.4191149 171.16,47.144 L169.181333,44.0133333 C168.977973,43.6762961 169.01231,43.2470866 169.266667,42.9466667 C169.790795,42.3531583 170.357641,41.7987898 170.962667,41.288 C171.263087,41.0336435 171.692296,40.9993068 172.029333,41.2026667 L175.144,43.1813333 C175.419115,43.3507673 175.762553,43.3649089 176.050667,43.2186667 C176.566057,42.9570941 177.101002,42.7359836 177.650667,42.5573333 C177.956852,42.4595625 178.189533,42.2086717 178.264,41.896 L179.08,38.2853333 C179.168003,37.8940003 179.501358,37.6061029 179.901333,37.576 C180.669993,37.5173361 181.442007,37.5173361 182.210667,37.576 C182.611347,37.6043991 182.945579,37.8930542 183.032,38.2853333 L183.848,41.8746667 C183.918494,42.1894442 184.152749,42.4420323 184.461333,42.536 C185.011088,42.7144063 185.546052,42.9355246 186.061333,43.1973333 C186.349447,43.3435755 186.692885,43.329434 186.968,43.16 L190.098667,41.1813333 C190.435704,40.9779734 190.864913,41.0123102 191.165333,41.2666667 C191.75091,41.78645 192.298116,42.3479155 192.802667,42.9466667 C193.057023,43.2470866 193.09136,43.6762961 192.888,44.0133333 L190.914667,47.144 C190.739901,47.4174613 190.725642,47.763763 190.877333,48.0506667 C191.137181,48.5661723 191.35651,49.1011212 191.533333,49.6506667 C191.631132,49.9588264 191.884773,50.1921754 192.2,50.264 L195.826667,51.08 C196.21883,51.1701544 196.506458,51.5053596 196.536,51.9066667 C196.594667,52.6949099 196.594667,53.4864234 196.536,54.2746667 Z M178.296,64.4293333 C178.262755,64.2839223 178.299,64.1313193 178.39408,64.0163872 C178.48916,63.9014551 178.632268,63.8372572 178.781333,63.8426667 C180.280067,63.9439949 181.783933,63.9439949 183.282667,63.8426667 C183.43976,63.8207207 183.597551,63.8777991 183.704249,63.9951673 C183.810948,64.1125354 183.852774,64.2750366 183.816,64.4293333 L182.968,68.2 C182.91919,68.4052535 182.745879,68.5571677 182.536,68.5786667 C181.553198,68.6693441 180.564135,68.6693441 179.581333,68.5786667 C179.370073,68.5603726 179.195147,68.4070429 179.149333,68.2 L178.296,64.4293333 Z M219.810667,56.2 L211.752,56.2 C211.677504,56.198726 211.60981,56.2431499 211.581333,56.312 L210.04,59.9333333 C210.010109,60.0041483 209.940864,60.0503114 209.864,60.0506667 L207.133333,60.0506667 C207.067687,60.0511669 207.006336,60.0180925 206.970673,59.9629765 C206.935009,59.9078604 206.929978,59.8383437 206.957333,59.7786667 L214.264,43.5493333 C214.293629,43.4814453 214.360595,43.4374986 214.434667,43.4373333 L217.229333,43.4373333 C217.30216,43.4365504 217.368791,43.478195 217.4,43.544 L224.728,59.7786667 C224.754976,59.8374864 224.750508,59.9059377 224.716115,59.9607517 C224.681722,60.0155656 224.622031,60.0493674 224.557333,60.0506667 L221.746667,60.0506667 C221.656324,60.0696941 221.565643,60.0198195 221.533333,59.9333333 L219.970667,56.3173333 C219.943241,56.2515604 219.881642,56.206388 219.810667,56.2 Z M218.802667,53.5333333 L215.954667,46.9093333 C215.92633,46.8384404 215.85768,46.7919487 215.781333,46.7919487 C215.704987,46.7919487 215.636336,46.8384404 215.608,46.9093333 L212.786667,53.5013333 C212.761701,53.5604767 212.767945,53.6281844 212.803307,53.6817637 C212.83867,53.7353431 212.89847,53.7677038 212.962667,53.768 L218.626667,53.768 C218.690863,53.7677038 218.750664,53.7353431 218.786026,53.6817637 C218.821388,53.6281844 218.827633,53.5604767 218.802667,53.5013333 L218.802667,53.5333333 Z M237,48.024 C237.961667,48.552822 238.75469,49.3421477 239.288,50.3013333 C239.857081,51.3398294 240.143951,52.5093766 240.12,53.6933333 C240.143774,54.8823587 239.857002,56.0570233 239.288,57.1013333 C238.759081,58.0692727 237.965469,58.8665851 237,59.4 C235.982358,59.9454895 234.842493,60.2226546 233.688,60.2053333 C232.310162,60.2609128 230.966861,59.7658102 229.954667,58.8293333 C229.898834,58.7793594 229.819029,58.7664327 229.750276,58.796226 C229.681522,58.8260192 229.636383,58.8930883 229.634667,58.968 L229.634667,64.4453333 C229.634667,64.551372 229.548705,64.6373333 229.442667,64.6373333 L226.866667,64.6373333 C226.762716,64.6344447 226.67996,64.5493237 226.68,64.4453333 L226.68,47.5493333 C226.67996,47.445343 226.762716,47.3602219 226.866667,47.3573333 L229.314667,47.3573333 C229.418617,47.3602219 229.501373,47.445343 229.501333,47.5493333 L229.501333,48.5253333 C229.501114,48.6038434 229.548717,48.6745769 229.621531,48.7039373 C229.694344,48.7332977 229.777698,48.7153689 229.832,48.6586667 C230.250504,48.2367622 230.74675,47.8998943 231.293333,47.6666667 C232.050492,47.3609349 232.86084,47.2086547 233.677333,47.2186667 C234.835717,47.1968957 235.980134,47.4742744 237,48.024 Z M236.050667,56.5573333 C236.778079,55.7813863 237.162528,54.7452956 237.117333,53.6826667 C237.161684,52.6217635 236.777253,51.5876428 236.050667,50.8133333 C235.352809,50.0934508 234.386356,49.6972049 233.384,49.72 C232.71014,49.710551 232.045812,49.8798535 231.458667,50.2106667 C230.886944,50.5361642 230.41911,51.0169423 230.109333,51.5973333 C229.764681,52.2373872 229.591945,52.9558956 229.608,53.6826667 C229.591507,54.4111832 229.764242,55.1315233 230.109333,55.7733333 C230.41911,56.3537243 230.886944,56.8345024 231.458667,57.16 C232.045812,57.4908132 232.71014,57.6601156 233.384,57.6506667 C234.381082,57.6732649 235.342858,57.2812154 236.04,56.568 L236.050667,56.5573333 Z M253.272,48.024 C254.233667,48.552822 255.02669,49.3421477 255.56,50.3013333 C256.129081,51.3398294 256.415951,52.5093766 256.392,53.6933333 C256.415774,54.8823587 256.129002,56.0570233 255.56,57.1013333 C255.030273,58.0673051 254.236736,58.8626924 253.272,59.3946667 C252.254358,59.9401562 251.114493,60.2173213 249.96,60.2 C248.582162,60.2555794 247.238861,59.7604769 246.226667,58.824 C246.170834,58.7740261 246.091029,58.7610993 246.022276,58.7908926 C245.953522,58.8206859 245.908383,58.8877549 245.906667,58.9626667 L245.906667,64.4453333 C245.906667,64.551372 245.820705,64.6373333 245.714667,64.6373333 L243.128,64.6373333 C243.02405,64.6344447 242.941293,64.5493237 242.941333,64.4453333 L242.941333,47.5493333 C242.941293,47.445343 243.02405,47.3602219 243.128,47.3573333 L245.576,47.3573333 C245.67995,47.3602219 245.762707,47.445343 245.762667,47.5493333 L245.762667,48.5253333 C245.764556,48.6014968 245.811301,48.6693376 245.881797,48.6982294 C245.952293,48.7271212 246.033203,48.7115976 246.088,48.6586667 C246.517327,48.2350122 247.024375,47.8981876 247.581333,47.6666667 C248.338492,47.3609349 249.14884,47.2086547 249.965333,47.2186667 C251.118319,47.1996502 252.256881,47.4769452 253.272,48.024 Z M252.322667,56.5573333 C253.050079,55.7813863 253.434528,54.7452956 253.389333,53.6826667 C253.433684,52.6217635 253.049253,51.5876428 252.322667,50.8133333 C251.624809,50.0934508 250.658356,49.6972049 249.656,49.72 C248.98214,49.710551 248.317812,49.8798535 247.730667,50.2106667 C247.157514,50.5360657 246.687931,51.0167413 246.376,51.5973333 C246.035909,52.2389121 245.865188,52.9566736 245.88,53.6826667 C245.864276,54.4104572 246.035024,55.1301682 246.376,55.7733333 C246.687931,56.3539254 247.157514,56.834601 247.730667,57.16 C248.317812,57.4908132 248.98214,57.6601156 249.656,57.6506667 C250.656758,57.6762477 251.622975,57.2839636 252.322667,56.568 L252.322667,56.5573333 Z M262.690667,59.1653333 C261.362778,58.4634243 260.255187,57.4075214 259.490667,56.1146667 C258.713278,54.7841099 258.314885,53.2661607 258.338667,51.7253333 C258.316475,50.1832984 258.718689,48.6648463 259.501333,47.336 C260.270613,46.0469361 261.377004,44.9921768 262.701333,44.2853333 C264.097779,43.5377086 265.661525,43.1577844 267.245333,43.1813333 C268.525219,43.1655817 269.795085,43.4086704 270.978667,43.896 C272.019042,44.3270185 272.950116,44.9847826 273.704,45.8213333 C273.775147,45.8939175 273.775147,46.0100825 273.704,46.0826667 L271.981333,47.6826667 C271.906942,47.7544628 271.789058,47.7544628 271.714667,47.6826667 C270.596438,46.500124 269.032632,45.8420865 267.405333,45.8693333 C266.337074,45.8514558 265.282392,46.1105328 264.344,46.6213333 C263.450453,47.096478 262.710537,47.8160467 262.210667,48.696 C261.694024,49.6151594 261.430826,50.6550663 261.448,51.7093333 C261.430826,52.7636004 261.694024,53.8035073 262.210667,54.7226667 C262.712069,55.6027889 263.451468,56.3237033 264.344,56.8026667 C265.283764,57.3093518 266.337816,57.5664377 267.405333,57.5493333 C269.033872,57.5742658 270.597111,56.9098406 271.709333,55.72 C271.745359,55.6838487 271.794296,55.6635286 271.845333,55.6635286 C271.89637,55.6635286 271.945307,55.6838487 271.981333,55.72 L273.704,57.3626667 C273.775147,57.4352508 273.775147,57.5514159 273.704,57.624 C272.946072,58.4644291 272.009306,59.1241748 270.962667,59.5546667 C269.778373,60.0390449 268.508751,60.2802729 267.229333,60.264 C265.647946,60.2868819 264.086519,59.9089102 262.690667,59.1653333 Z M283.661333,47.4106667 L283.661333,49.8 C283.662157,49.8555853 283.638164,49.9086455 283.595883,49.9447389 C283.553602,49.9808323 283.497434,49.9962027 283.442667,49.9866667 C283.28705,49.9661443 283.130295,49.9554564 282.973333,49.9546667 C281.970373,49.8955894 280.988879,50.2614719 280.269333,50.9626667 C279.572382,51.7643431 279.221441,52.8094947 279.293333,53.8693333 L279.293333,59.8426667 C279.293373,59.946657 279.210617,60.0317781 279.106667,60.0346667 L276.52,60.0346667 C276.469078,60.0346667 276.420242,60.0144382 276.384235,59.9784312 C276.348229,59.9424242 276.328,59.8935882 276.328,59.8426667 L276.328,47.576 C276.328,47.4699613 276.413961,47.384 276.52,47.384 L278.962667,47.384 C279.068705,47.384 279.154667,47.4699613 279.154667,47.576 L279.154667,48.6426667 C279.150559,48.7231437 279.198557,48.7971724 279.273705,48.8262619 C279.348853,48.8553515 279.434185,48.8329346 279.485333,48.7706667 C280.345778,47.7751111 281.673778,47.2595556 283.469333,47.224 C283.573324,47.2239599 283.658445,47.3067165 283.661333,47.4106667 Z M295.234667,48.5573333 C296.233778,49.4533333 296.733333,50.8026667 296.733333,52.6053333 L296.733333,59.8426667 C296.733333,59.9487053 296.647372,60.0346667 296.541333,60.0346667 L294.12,60.0346667 C294.069555,60.0346873 294.021249,60.0142902 293.986085,59.9781213 C293.950921,59.9419524 293.931892,59.8930912 293.933333,59.8426667 L293.933333,59.0373333 C293.929393,58.9607514 293.880262,58.8938584 293.808366,58.8671875 C293.73647,58.8405165 293.655599,58.859183 293.602667,58.9146667 C293.257659,59.2787776 292.839651,59.5659306 292.376,59.7573333 C290.788024,60.3620647 289.030589,60.3468323 287.453333,59.7146667 C286.786186,59.426934 286.213305,58.9575411 285.8,58.36 C285.413814,57.7808534 285.21122,57.0987232 285.218667,56.4026667 C285.184832,55.3396501 285.655484,54.3231992 286.488,53.6613333 C287.334222,52.9751111 288.667556,52.6302222 290.488,52.6266667 L293.576,52.6266667 C293.679093,52.6266667 293.762667,52.5430932 293.762667,52.44 C293.814349,51.674873 293.523159,50.9263783 292.968,50.3973333 C292.297613,49.8758399 291.457779,49.6212297 290.610667,49.6826667 C289.896851,49.6827089 289.187571,49.7961217 288.509333,50.0186667 C287.934819,50.1884306 287.393652,50.4554066 286.909333,50.808 C286.865379,50.8407384 286.809258,50.8525063 286.755855,50.8401825 C286.702452,50.8278587 286.657163,50.7926886 286.632,50.744 L285.650667,48.9306667 C285.607422,48.846666 285.629785,48.7437993 285.704,48.6853333 C286.392516,48.2019413 287.159339,47.8410832 287.970667,47.6186667 C288.935594,47.3475689 289.93373,47.2129282 290.936,47.2186667 C292.813333,47.2186667 294.242667,47.6666667 295.234667,48.5573333 Z M292.525333,57.528 C293.082367,57.2087576 293.510537,56.7051394 293.736,56.104 C293.741068,56.0811667 293.741068,56.0575 293.736,56.0346667 L293.736,54.7866667 C293.736,54.6835735 293.652426,54.6 293.549333,54.6 L290.674667,54.6 C288.968,54.6 288.114667,55.1617778 288.114667,56.2853333 C288.10028,56.7922335 288.340515,57.2727026 288.754667,57.5653333 C289.282317,57.910177 289.906718,58.0765594 290.536,58.04 C291.233461,58.0545106 291.921538,57.8774182 292.525333,57.528 Z M303.789333,46.696 L303.789333,47.2613333 C303.789293,47.3653237 303.87205,47.4504447 303.976,47.4533333 L307.085333,47.4533333 C307.191372,47.4533333 307.277333,47.5392947 307.277333,47.6453333 L307.277333,49.6346667 C307.277333,49.7407053 307.191372,49.8266667 307.085333,49.8266667 L304.072,49.8266667 C303.96805,49.8295553 303.885293,49.9146763 303.885333,50.0186667 L303.885333,59.8426667 C303.885333,59.8935882 303.865105,59.9424242 303.829098,59.9784312 C303.793091,60.0144382 303.744255,60.0346667 303.693333,60.0346667 L301.106667,60.0346667 C301.000628,60.0346667 300.914667,59.9487053 300.914667,59.8426667 L300.914667,50.0186667 C300.914707,49.9146763 300.83195,49.8295553 300.728,49.8266667 L299.016,49.8266667 C298.91205,49.8237781 298.829293,49.738657 298.829333,49.6346667 L298.829333,47.6666667 C298.829293,47.5626763 298.91205,47.4775553 299.016,47.4746667 L300.728,47.4746667 C300.83195,47.4717781 300.914707,47.386657 300.914667,47.2826667 L300.914667,46.648 C300.853682,45.4630883 301.283935,44.305455 302.104,43.448 C303.013069,42.6184961 304.219714,42.1931875 305.448,42.2693333 C306.338659,42.225635 307.223723,42.4325811 308.002667,42.8666667 C308.078454,42.915991 308.109553,43.0115106 308.077333,43.096 L307.4,44.9573333 C307.379668,45.0101217 307.337092,45.0512577 307.283636,45.0697619 C307.230179,45.088266 307.171283,45.0822551 307.122667,45.0533333 C306.686546,44.7903072 306.186629,44.6519539 305.677333,44.6533333 C304.418667,44.6533333 303.789333,45.3342222 303.789333,46.696 Z M316.84,59.2133333 C316.866814,59.2951473 316.839011,59.3849733 316.770667,59.4373333 C316.421234,59.6818487 316.031189,59.8624251 315.618667,59.9706667 C315.09771,60.1151595 314.559282,60.1869499 314.018667,60.184 C312.844544,60.267769 311.684855,59.8844007 310.792,59.1173333 C309.978148,58.2588335 309.563793,57.0970919 309.650667,55.9173333 L309.650667,50.0186667 C309.650707,49.9146763 309.56795,49.8295553 309.464,49.8266667 L307.773333,49.8266667 C307.669383,49.8237781 307.586627,49.738657 307.586667,49.6346667 L307.586667,47.6666667 C307.586627,47.5626763 307.669383,47.4775553 307.773333,47.4746667 L309.485333,47.4746667 C309.589284,47.4717781 309.67204,47.386657 309.672,47.2826667 L309.672,44.7493333 C309.672,44.6432947 309.757961,44.5573333 309.864,44.5573333 L312.450667,44.5573333 C312.556705,44.5573333 312.642667,44.6432947 312.642667,44.7493333 L312.642667,47.2613333 C312.642627,47.3653237 312.725383,47.4504447 312.829333,47.4533333 L315.842667,47.4533333 C315.948705,47.4533333 316.034667,47.5392947 316.034667,47.6453333 L316.034667,49.6346667 C316.034667,49.7407053 315.948705,49.8266667 315.842667,49.8266667 L312.829333,49.8266667 C312.725383,49.8295553 312.642627,49.9146763 312.642667,50.0186667 L312.642667,55.8533333 C312.607054,56.3642477 312.76723,56.8695643 313.090667,57.2666667 C313.436544,57.6082242 313.912352,57.784953 314.397333,57.752 C314.912906,57.7670793 315.421966,57.6337981 315.864,57.368 C315.912301,57.3368189 315.972032,57.3289228 316.026776,57.3464821 C316.08152,57.3640414 316.125515,57.4052082 316.146667,57.4586667 L316.84,59.2133333 Z" id="logo-horizontal-small"></path>
        </g>
    </g>
</svg>